<svg width="1440" height="179" viewBox="0 0 1440 179" fill="none" xmlns="http://www.w3.org/2000/svg">
<path d="M1360.9 269.202V269.702H1361.4H1402.75H1403.25V269.202V193.096H1404.98C1413.06 210.117 1430.6 220.425 1452.02 220.425C1471.92 220.425 1487.89 212.824 1498.88 198.888C1509.85 184.966 1515.82 164.772 1515.82 139.637V139.354C1515.82 114.427 1509.71 94.2339 1498.67 80.2611C1487.61 66.2751 1471.64 58.5654 1452.02 58.5654C1429.89 58.5654 1413.2 68.4506 1404.98 85.1865H1403.25V61.6143V61.1143H1402.75H1361.4H1360.9V61.6143V269.202ZM1472.76 139.637C1472.76 153.866 1469.38 165.252 1463.34 173.068C1457.32 180.869 1448.62 185.157 1437.86 185.157C1427.18 185.157 1418.44 180.869 1412.36 173.066C1406.27 165.249 1402.82 153.864 1402.82 139.637V139.354C1402.82 125.125 1406.24 113.74 1412.31 105.924C1418.37 98.1215 1427.11 93.833 1437.86 93.833C1448.69 93.833 1457.39 98.1217 1463.4 105.922C1469.42 113.738 1472.76 125.123 1472.76 139.354V139.637Z" stroke="#E8E8E8"/>
<path d="M1173.42 139.637C1173.42 165.077 1180.67 185.496 1194 199.56C1207.33 213.626 1226.7 221.274 1250.81 221.274C1274.92 221.274 1294.28 213.662 1307.62 199.613C1320.95 185.567 1328.2 165.147 1328.2 139.637V139.354C1328.2 114.053 1320.84 93.6338 1307.46 79.5366C1294.07 65.4364 1274.71 57.7158 1250.81 57.7158C1226.91 57.7158 1207.54 65.4722 1194.16 79.5899C1180.77 93.7046 1173.42 114.123 1173.42 139.354V139.637ZM1284.86 139.637C1284.86 154.942 1281.72 167.005 1275.9 175.226C1270.11 183.426 1261.62 187.848 1250.81 187.848C1239.92 187.848 1231.44 183.425 1225.66 175.227C1219.86 167.006 1216.76 154.943 1216.76 139.637V139.354C1216.76 124.19 1219.9 112.127 1225.71 103.869C1231.51 95.6331 1239.99 91.1426 1250.81 91.1426C1261.55 91.1426 1270.03 95.6325 1275.85 103.87C1281.68 112.128 1284.86 124.192 1284.86 139.354V139.637Z" stroke="#E8E8E8"/>
<path d="M958.041 217.518V218.018H958.541H1001.3H1001.8V217.518V131.924H1092.85V217.518V218.018H1093.35H1136.11H1136.61V217.518V13.1865V12.6865H1136.11H1093.35H1092.85V13.1865V95.665H1001.8V13.1865V12.6865H1001.3H958.541H958.041V13.1865V217.518Z" stroke="#E8E8E8"/>
<path d="M870.323 1.5H869.823V2V86.0361H868.094C860.148 69.0137 842.614 58.5654 821.188 58.5654C801.294 58.5654 785.32 66.166 774.332 80.1023C763.355 94.0238 757.392 114.218 757.392 139.354V139.637C757.392 164.634 763.498 184.827 774.545 198.783C785.602 212.751 801.574 220.425 821.188 220.425C843.173 220.425 859.871 210.68 868.088 193.804H869.823V217.518V218.018H870.323H911.671H912.171V217.518V2V1.5H911.671H870.323ZM870.248 139.778C870.248 154.008 866.866 165.357 860.813 173.137C854.771 180.902 846.035 185.157 835.206 185.157C824.449 185.157 815.784 180.904 809.795 173.121C803.795 165.324 800.447 153.939 800.447 139.637V139.354C800.447 125.194 803.794 113.808 809.796 105.974C815.787 98.1552 824.452 93.833 835.206 93.833C845.961 93.833 854.698 98.1557 860.759 105.994C866.831 113.846 870.248 125.267 870.248 139.495V139.778Z" stroke="#E8E8E8"/>
<path d="M582.938 217.518V218.018H583.438H624.786H625.286V217.518V127.317C625.286 116.856 628.164 108.275 633.358 102.317C638.545 96.3667 646.083 92.9834 655.514 92.9834C665.182 92.9834 672.172 95.8517 676.759 101.353C681.361 106.872 683.617 115.125 683.617 126.043V217.518V218.018H684.117H725.465H725.965V217.518V116.697C725.965 97.9991 721.273 83.2423 712.153 73.1558C703.027 63.0613 689.532 57.7158 672.081 57.7158C649.801 57.7158 634.227 68.3122 627.004 85.1865H625.286V61.6143V61.1143H624.786H583.438H582.938V61.6143V217.518Z" stroke="#E8E8E8"/>
<path d="M451.504 184.269C455.696 187.477 461.668 189.264 468.741 189.264C487.648 189.264 501.659 176.823 501.659 160.735V149.798L470.756 151.747L470.755 151.747M451.504 184.269L502.159 160.735C502.159 177.161 487.857 189.764 468.741 189.764C454.439 189.764 444.386 182.542 444.386 170.647V170.364C444.386 159.036 453.023 152.381 470.724 151.248L470.755 151.747M451.504 184.269C447.326 181.07 444.886 176.438 444.886 170.647V170.364C444.886 164.847 446.979 160.506 451.214 157.385C455.476 154.245 461.95 152.311 470.755 151.747M451.504 184.269L470.755 151.747M501.659 197.344V217.518V218.018H502.159H542.94H543.44V217.518V111.033C543.44 94.2688 537.549 80.9132 526.407 71.7595C515.279 62.6173 498.974 57.7158 478.229 57.7158C438.877 57.7158 412.78 75.9227 409.48 103.611L409.48 103.615L409.338 104.889L409.276 105.444H409.835H448.067H448.376L448.515 105.168L448.798 104.602L448.812 104.574L448.822 104.545C451.977 95.6294 461.193 90.4346 475.963 90.4346C484.393 90.4346 490.814 92.3324 495.118 95.8275C499.406 99.3095 501.659 104.43 501.659 111.033V123.448L464.464 125.685C445.01 126.821 429.782 131.51 419.407 139.488C409.011 147.482 403.529 158.748 403.529 172.913V173.196C403.529 187.488 408.857 199.308 417.96 207.551C427.059 215.79 439.894 220.425 454.864 220.425C475.27 220.425 491.814 211.827 499.905 197.344H501.659Z" stroke="#E8E8E8"/>
<path d="M327.772 217.518V218.018H328.272H369.62H370.12V217.518V2V1.5H369.62H328.272H327.772V2V217.518Z" stroke="#E8E8E8"/>
<path d="M138.876 139.637C138.876 165.077 146.125 185.496 159.457 199.56C172.791 213.626 192.156 221.274 216.266 221.274C240.375 221.274 259.739 213.662 273.074 199.613C286.406 185.567 293.655 165.147 293.655 139.637V139.354C293.655 114.053 286.298 93.6338 272.915 79.5366C259.529 65.4364 240.165 57.7158 216.266 57.7158C192.365 57.7158 173.002 65.4722 159.616 79.5899C146.233 93.7046 138.876 114.123 138.876 139.354V139.637ZM250.316 139.637C250.316 154.942 247.176 167.005 241.363 175.226C235.566 183.426 227.084 187.848 216.266 187.848C205.376 187.848 196.894 183.425 191.115 175.227C185.32 167.006 182.215 154.943 182.215 139.637V139.354C182.215 124.19 185.355 112.127 191.168 103.869C196.967 95.6331 205.45 91.1426 216.266 91.1426C227.009 91.1426 235.493 95.6325 241.31 103.87C247.142 112.128 250.316 124.192 250.316 139.354V139.637Z" stroke="#E8E8E8"/>
<path d="M-76.5 217.518V218.018H-76H-33.2363H-32.7363V217.518V131.924H58.3047V217.518V218.018H58.8047H101.568H102.068V217.518V13.1865V12.6865H101.568H58.8047H58.3047V13.1865V95.665H-32.7363V13.1865V12.6865H-33.2363H-76H-76.5V13.1865V217.518Z" stroke="#E8E8E8"/>
<path d="M102 13L102 15" stroke="url(#paint0_linear_21_17081)"/>
<path d="M328 1V3" stroke="url(#paint1_linear_21_17081)"/>
<path d="M583 61V63" stroke="url(#paint2_linear_21_17081)"/>
<path d="M912 2V4" stroke="url(#paint3_linear_21_17081)"/>
<path d="M1137 12V14" stroke="url(#paint4_linear_21_17081)"/>
<path d="M1002 96H1000" stroke="url(#paint5_linear_21_17081)"/>
<path d="M1094 132L1092 132" stroke="url(#paint6_linear_21_17081)"/>
<defs>
<linearGradient id="paint0_linear_21_17081" x1="102.5" y1="13" x2="102.5" y2="15" gradientUnits="userSpaceOnUse">
<stop stop-color="#FF6000" stop-opacity="0"/>
<stop offset="0.171875" stop-color="#FF6000" stop-opacity="0.9"/>
<stop offset="0.760417" stop-color="#FF6000"/>
<stop offset="1" stop-color="#FF6000" stop-opacity="0"/>
</linearGradient>
<linearGradient id="paint1_linear_21_17081" x1="328.5" y1="1" x2="328.5" y2="3" gradientUnits="userSpaceOnUse">
<stop stop-color="#FF6000" stop-opacity="0"/>
<stop offset="0.171875" stop-color="#FF6000" stop-opacity="0.9"/>
<stop offset="0.760417" stop-color="#FF6000"/>
<stop offset="1" stop-color="#FF6000" stop-opacity="0"/>
</linearGradient>
<linearGradient id="paint2_linear_21_17081" x1="583.5" y1="61" x2="583.5" y2="63" gradientUnits="userSpaceOnUse">
<stop stop-color="#FF6000" stop-opacity="0"/>
<stop offset="0.171875" stop-color="#FF6000" stop-opacity="0.9"/>
<stop offset="0.760417" stop-color="#FF6000"/>
<stop offset="1" stop-color="#FF6000" stop-opacity="0"/>
</linearGradient>
<linearGradient id="paint3_linear_21_17081" x1="912.5" y1="2" x2="912.5" y2="4" gradientUnits="userSpaceOnUse">
<stop stop-color="#FF6000" stop-opacity="0"/>
<stop offset="0.171875" stop-color="#FF6000" stop-opacity="0.9"/>
<stop offset="0.760417" stop-color="#FF6000"/>
<stop offset="1" stop-color="#FF6000" stop-opacity="0"/>
</linearGradient>
<linearGradient id="paint4_linear_21_17081" x1="1137.5" y1="12" x2="1137.5" y2="14" gradientUnits="userSpaceOnUse">
<stop stop-color="#FF6000" stop-opacity="0"/>
<stop offset="0.171875" stop-color="#FF6000" stop-opacity="0.9"/>
<stop offset="0.760417" stop-color="#FF6000"/>
<stop offset="1" stop-color="#FF6000" stop-opacity="0"/>
</linearGradient>
<linearGradient id="paint5_linear_21_17081" x1="1002" y1="96.5" x2="1000" y2="96.5" gradientUnits="userSpaceOnUse">
<stop stop-color="#FF6000" stop-opacity="0"/>
<stop offset="0.171875" stop-color="#FF6000" stop-opacity="0.9"/>
<stop offset="0.760417" stop-color="#FF6000"/>
<stop offset="1" stop-color="#FF6000" stop-opacity="0"/>
</linearGradient>
<linearGradient id="paint6_linear_21_17081" x1="1094" y1="132.5" x2="1092" y2="132.5" gradientUnits="userSpaceOnUse">
<stop stop-color="#FF6000" stop-opacity="0"/>
<stop offset="0.171875" stop-color="#FF6000" stop-opacity="0.9"/>
<stop offset="0.760417" stop-color="#FF6000"/>
<stop offset="1" stop-color="#FF6000" stop-opacity="0"/>
</linearGradient>
</defs>
</svg>
